<svg width="79" height="79" viewBox="0 0 79 79" fill="none" xmlns="http://www.w3.org/2000/svg">
<rect x="0.5" y="0.5" width="78" height="78" rx="4.5" stroke="white"/>
<path d="M24.8866 34.4872C24.8112 36.844 25.9962 37.8877 26.0256 38.5505C26.0116 38.6854 25.9654 38.815 25.8907 38.9285C25.816 39.042 25.7151 39.1361 25.5963 39.2029L24.2564 40.1352C24.083 40.256 23.8785 40.3253 23.667 40.335C23.622 40.3329 22.8096 40.5254 21.523 37.6702C20.7381 38.6441 19.7393 39.4266 18.6033 39.9577C17.4672 40.4888 16.2239 40.7546 14.9686 40.7346C13.2644 40.8272 8.64562 39.7731 8.88326 34.8857C8.71681 30.9026 12.4489 28.4282 16.3086 28.6373C17.0519 28.6394 18.5698 28.6758 21.2278 29.2898V27.6644C21.5094 24.9112 19.6889 22.775 16.5368 23.0955C16.2856 23.0965 14.5059 23.0434 11.738 24.1475C10.9676 24.4992 10.8691 24.4409 10.6127 24.4409C9.83695 24.4409 10.1562 22.2058 10.3049 21.9228C10.8503 21.2569 14.0589 20.0134 17.2079 20.0311C19.3134 19.846 21.4076 20.4919 23.0378 21.8292C23.7005 22.5659 24.2061 23.4286 24.524 24.365C24.842 25.3014 24.9656 26.2921 24.8876 27.2774L24.8866 34.4872ZM15.8396 37.8575C19.2346 37.8086 20.6719 35.7795 20.9996 34.687C21.2571 33.6413 21.2142 32.9795 21.2142 31.8359C20.2019 31.5945 18.7447 31.3313 17.0728 31.3292C15.4868 31.2106 12.5902 31.915 12.7032 34.6859C12.5734 36.433 13.8673 37.9532 15.8396 37.8575ZM33.7325 40.2559C32.9097 40.3308 32.5265 39.7502 32.4051 39.1769L27.1918 22.0445C27.0902 21.7553 27.0232 21.4566 26.9908 21.1518C26.9715 21.0261 27.0033 20.8979 27.0791 20.7955C27.1548 20.6931 27.2684 20.6247 27.3948 20.6055C27.42 20.6013 27.1719 20.6055 29.7241 20.6055C30.6432 20.5139 30.9426 21.2329 31.0379 21.6845L34.7773 36.3383L38.2487 21.6845C38.3041 21.3495 38.5564 20.5326 39.5886 20.619H41.3851C41.6122 20.6003 42.5481 20.567 42.7125 21.698L46.2111 36.5391L50.0708 21.698C50.1211 21.4712 50.3556 20.515 51.3982 20.619H53.4626C53.5516 20.6055 54.1065 20.5347 54.0122 21.5118C53.9672 21.7043 54.3692 20.4026 48.4901 39.1904C48.3697 39.7637 47.9855 40.3444 47.1627 40.2694H45.2061C44.0608 40.3891 43.8965 39.2643 43.8787 39.1509L40.4073 24.8821L36.9757 39.1363C36.9589 39.2497 36.7946 40.3745 35.6483 40.2549H33.7325V40.2559ZM62.362 40.8417C61.7464 40.8428 58.811 40.8105 56.3572 39.5629C56.1128 39.46 55.9046 39.2873 55.759 39.0667C55.6135 38.8461 55.5371 38.5875 55.5396 38.3236V37.2051C55.5396 36.3258 56.1887 36.4871 56.464 36.5922C57.515 37.0147 58.1892 37.3351 59.48 37.5911C63.3167 38.3746 65.0043 37.3518 65.4178 37.125C66.7944 36.3123 66.9033 34.4529 65.9674 33.4883C64.8703 32.5737 64.3468 32.5393 60.4054 31.3032C59.9197 31.169 55.8306 29.887 55.8212 25.855C55.7574 22.9165 58.4436 20.0093 63.099 20.0332C64.4253 20.0322 67.9595 20.4629 68.9164 21.6585C69.0577 21.876 69.1278 22.1319 69.1174 22.391V23.443C69.1174 23.905 68.9478 24.136 68.6075 24.136C67.8004 24.0465 66.3683 22.9737 63.4612 23.0174C62.7399 22.98 59.2853 23.1121 59.4402 25.6156C59.3952 27.5885 62.2259 28.3283 62.5494 28.4136C66.3662 29.5551 67.6423 29.7445 69.1571 31.4915C70.9515 33.8067 69.9842 36.5173 69.6125 37.2602C67.6151 41.1612 62.4499 40.8438 62.362 40.8417ZM66.5704 51.7527C59.2392 57.1344 48.5969 59.9989 39.5101 59.9989C27.2494 60.0793 15.4018 55.5982 6.29647 47.4366C5.61287 46.8237 6.21586 45.984 7.04707 46.4512C17.1476 52.1941 28.5836 55.2116 40.2199 55.2042C48.9096 55.1579 57.5045 53.4057 65.5109 50.0483C66.7441 49.5281 67.7899 50.86 66.5704 51.7527ZM69.6261 48.2888C68.6882 47.0901 63.4204 47.729 61.0618 48.0089C60.351 48.089 60.2306 47.4762 60.8744 47.0235C65.0692 44.0923 71.9585 44.9321 72.75 45.9174C73.5403 46.9028 72.5353 53.7641 68.6086 57.0418C68.0056 57.5485 67.4288 57.2811 67.6968 56.6151C68.5803 54.404 70.5641 49.4885 69.6261 48.2888Z" fill="white"/>
</svg>
