<svg width="79" height="79" viewBox="0 0 79 79" fill="none" xmlns="http://www.w3.org/2000/svg">
<rect x="0.5" y="0.5" width="78" height="78" rx="4.5" stroke="#EFB9A7"/>
<path d="M61.72 13H18.28C16.8797 13 15.5367 13.5563 14.5465 14.5465C13.5563 15.5367 13 16.8797 13 18.28V61.72C13 63.1203 13.5563 64.4633 14.5465 65.4535C15.5367 66.4437 16.8797 67 18.28 67H61.72C62.4134 67 63.1 66.8634 63.7406 66.5981C64.3812 66.3327 64.9632 65.9438 65.4535 65.4535C65.9438 64.9632 66.3327 64.3812 66.5981 63.7406C66.8634 63.1 67 62.4134 67 61.72V18.28C67 17.5866 66.8634 16.9 66.5981 16.2594C66.3327 15.6188 65.9438 15.0368 65.4535 14.5465C64.9632 14.0562 64.3812 13.6673 63.7406 13.4019C63.1 13.1366 62.4134 13 61.72 13ZM44.32 43H37.57V62.32H32.2V43H25.45V38.62H44.32V43ZM61.72 58.84C61.2857 59.7634 60.5859 60.5364 59.71 61.06C58.7885 61.6272 57.7722 62.0235 56.71 62.23C55.5257 62.4746 54.3192 62.5952 53.11 62.59C51.8727 62.5889 50.6379 62.4785 49.42 62.26C48.3848 62.048 47.378 61.7158 46.42 61.27V56.14L46.24 55.96H46.42V56.17C47.3223 56.874 48.3364 57.4216 49.42 57.79C50.5021 58.202 51.6523 58.4056 52.81 58.39C53.415 58.4006 54.0191 58.3401 54.61 58.21C55.0538 58.1061 55.4789 57.9341 55.87 57.7C56.1762 57.5133 56.4333 57.2562 56.62 56.95C56.8047 56.6013 56.8859 56.2071 56.854 55.8137C56.8221 55.4204 56.6785 55.0444 56.44 54.73C56.158 54.3346 55.8013 53.9983 55.39 53.74C54.8906 53.3889 54.3581 53.0874 53.8 52.84L51.79 52C50.1989 51.3447 48.7891 50.3157 47.68 49C46.7518 47.8811 46.2614 46.4633 46.3 45.01C46.265 43.906 46.5129 42.8113 47.02 41.83C47.5039 40.9746 48.1822 40.245 49 39.7C49.9112 39.0938 50.9292 38.6662 52 38.44C53.1706 38.1706 54.3688 38.0397 55.57 38.05C56.6638 38.0347 57.7571 38.1049 58.84 38.26C59.7409 38.4008 60.6254 38.632 61.48 38.95V43.9C61.0851 43.6185 60.663 43.3773 60.22 43.18C59.743 42.9747 59.2517 42.8042 58.75 42.67C58.2692 42.5293 57.7775 42.4289 57.28 42.37C56.821 42.3267 56.359 42.3267 55.9 42.37C55.3347 42.3606 54.7705 42.4211 54.22 42.55C53.7684 42.6447 53.3336 42.8065 52.93 43.03C52.615 43.2156 52.3478 43.4725 52.15 43.78C51.9704 44.0788 51.877 44.4214 51.88 44.77C51.8727 45.1421 51.9772 45.5079 52.18 45.82C52.4264 46.1607 52.7311 46.4553 53.08 46.69C53.503 47.0267 53.9666 47.3089 54.46 47.53L56.35 48.37C57.219 48.7293 58.0612 49.1503 58.87 49.63C59.5812 50.0192 60.2287 50.515 60.79 51.1C61.34 51.6329 61.7696 52.2774 62.05 52.99C62.3377 53.809 62.4798 54.672 62.47 55.54C62.4485 56.6605 62.1931 57.7641 61.72 58.78V58.84Z" fill="#EFB9A7"/>
</svg>
