<svg width="79" height="79" viewBox="0 0 79 79" fill="none" xmlns="http://www.w3.org/2000/svg">
<rect x="0.5" y="0.5" width="78" height="78" rx="4.5" stroke="#321C69"/>
<path d="M23.3333 15C21.1232 15 19.0036 15.878 17.4408 17.4408C15.878 19.0036 15 21.1232 15 23.3333V56.6667C15 58.8768 15.878 60.9964 17.4408 62.5592C19.0036 64.122 21.1232 65 23.3333 65H56.6667C58.8768 65 60.9964 64.122 62.5592 62.5592C64.122 60.9964 65 58.8768 65 56.6667V23.3333C65 21.1232 64.122 19.0036 62.5592 17.4408C60.9964 15.878 58.8768 15 56.6667 15H23.3333ZM43.7056 51.2639C45.7056 52.875 47.7 53.6667 49.6944 53.6472C50.9167 53.6472 51.8556 53.425 52.5056 52.975C52.8091 52.778 53.056 52.5053 53.2221 52.1839C53.3882 51.8624 53.4677 51.5032 53.4528 51.1417C53.4568 50.7473 53.3743 50.3569 53.2112 49.998C53.048 49.639 52.8081 49.3201 52.5083 49.0639C51.8556 48.4944 50.6222 47.925 48.8083 47.3528C46.6306 46.7222 44.9472 45.9083 43.7667 44.9083C42.6056 43.9083 42.0167 42.5139 41.9944 40.7222C41.9944 39.0306 42.7278 37.6167 44.1944 36.475C45.6222 35.3361 47.4444 34.7639 49.6667 34.7639C52.7611 34.7639 55.2472 35.5167 57.1194 37.025L54.9806 40.3556C54.2105 39.7566 53.3269 39.32 52.3833 39.0722C51.5353 38.7886 50.6495 38.6341 49.7556 38.6139C48.7 38.6139 47.8528 38.8083 47.2194 39.1944C46.5889 39.5833 46.275 40.0917 46.275 40.7222C46.275 41.4167 46.6611 42.0056 47.4333 42.4944C48.2111 42.9639 49.5333 43.4833 51.4056 44.0528C53.6667 44.725 55.2778 45.6222 56.2333 46.7417C57.1917 47.8611 57.6694 49.2889 57.6694 51.0194C57.6694 52.7917 56.9889 54.3194 55.6222 55.6028C54.2778 56.8667 52.3222 57.5278 49.7556 57.5889C46.3944 57.5889 43.5833 56.5806 41.3222 54.5639L43.7056 51.2639ZM28.3444 53.0361C28.9972 53.4444 29.7806 53.6472 30.6972 53.6472C31.6556 53.6472 32.4472 53.3722 33.0806 52.8222C33.7111 52.2528 34.0278 51.2639 34.0278 49.8583V35.1306H38.1528V50.6528C38.0917 53.0556 37.4 54.7889 36.075 55.8472C35.352 56.462 34.5092 56.9198 33.6 57.1917C32.7579 57.4483 31.8831 57.582 31.0028 57.5889C29.475 57.5889 28.1194 57.325 26.9389 56.7944C25.675 56.225 24.6167 55.2167 23.7611 53.7694L26.6333 51.4167C27.1611 52.1306 27.7333 52.6694 28.3444 53.0361Z" fill="#321C69"/>
</svg>
