<svg width="79" height="79" viewBox="0 0 79 79" fill="none" xmlns="http://www.w3.org/2000/svg">
<rect x="0.5" y="0.5" width="78" height="78" rx="4.5" stroke="#321C69"/>
<path d="M60.275 29.4715C59.6 29.2425 58.925 29.0262 58.25 28.8227C58.3625 28.3519 58.4625 27.8812 58.5625 27.4105C60.1 19.8278 59.0875 13.7338 55.675 11.7236C52.3875 9.80249 47.025 11.7999 41.6 16.609C41.0625 17.0798 40.5375 17.576 40.0375 18.0721C39.7 17.7414 39.35 17.4106 39 17.0925C33.3125 11.9526 27.6125 9.78977 24.2 11.8127C20.925 13.7465 19.95 19.4843 21.325 26.6599C21.4625 27.3723 21.6125 28.0721 21.7875 28.7845C20.9875 29.0135 20.2 29.268 19.4625 29.5351C12.7875 31.8888 8 35.6038 8 39.446C8 43.4154 13.1 47.3976 20.0375 49.8149C20.6 50.0057 21.1625 50.1965 21.7375 50.3619C21.55 51.1253 21.3875 51.8759 21.2375 52.652C19.925 59.713 20.95 65.3109 24.225 67.232C27.6 69.2167 33.275 67.1811 38.8 62.2575C39.2375 61.8631 39.675 61.456 40.1125 61.0234C40.6625 61.5705 41.2375 62.0921 41.8125 62.601C47.1625 67.2829 52.45 69.1786 55.7125 67.2575C59.0875 65.2727 60.1875 59.255 58.7625 51.9268C58.65 51.367 58.525 50.7945 58.3875 50.2093C58.7875 50.0948 59.175 49.9675 59.5625 49.8403C66.775 47.4103 72 43.479 72 39.446C72 35.5911 67.075 31.8506 60.275 29.4715ZM43.3625 18.6701C48.0125 14.548 52.35 12.9322 54.325 14.09C56.4375 15.3241 57.25 20.3113 55.925 26.8634C55.8375 27.296 55.75 27.7158 55.6375 28.1357C52.8625 27.4995 50.05 27.0415 47.225 26.7871C45.6 24.4207 43.825 22.1561 41.9 20.0314C42.3875 19.5607 42.8625 19.1154 43.3625 18.6701ZM28.9 46.049C29.5375 47.1559 30.1875 48.2627 30.875 49.3441C28.925 49.1278 26.9875 48.8098 25.075 48.3899C25.625 46.5579 26.3125 44.6622 27.1125 42.7284C27.6875 43.848 28.275 44.9549 28.9 46.049ZM25.1125 30.7438C26.9125 30.3367 28.825 30.0059 30.8125 29.7514C30.15 30.8074 29.5 31.8888 28.8875 32.983C28.275 34.0644 27.675 35.1712 27.1125 36.2908C26.325 34.3952 25.6625 32.5377 25.1125 30.7438ZM28.5375 39.5096C29.3625 37.7539 30.2625 36.0364 31.2125 34.3443C32.1625 32.6522 33.1875 31.011 34.2625 29.3952C36.1375 29.2552 38.05 29.1789 40 29.1789C41.95 29.1789 43.875 29.2552 45.7375 29.3952C46.8 30.9982 47.8125 32.6394 48.775 34.3188C49.7375 35.9982 50.6375 37.7157 51.4875 39.4587C50.65 41.2144 49.75 42.9447 48.7875 44.6495C47.8375 46.3416 46.825 47.9828 45.7625 49.6113C43.9 49.7513 41.9625 49.8149 40 49.8149C38.0375 49.8149 36.1375 49.7513 34.3 49.6367C33.2125 48.021 32.1875 46.3671 31.225 44.675C30.2625 42.9829 29.375 41.2653 28.5375 39.5096ZM51.1125 46.0235C51.75 44.904 52.35 43.7717 52.9375 42.6266C53.7375 44.4714 54.4375 46.3416 55.05 48.2627C53.1125 48.708 51.15 49.0515 49.175 49.2805C49.85 48.2118 50.4875 47.1177 51.1125 46.0235ZM52.9125 36.2908C52.325 35.1712 51.725 34.0516 51.1 32.9575C50.4875 31.8761 49.85 30.8074 49.1875 29.7514C51.2 30.0059 53.125 30.3494 54.925 30.7692C54.35 32.6522 53.675 34.4842 52.9125 36.2908ZM40.025 21.978C41.3375 23.4283 42.575 24.955 43.725 26.5326C41.25 26.4181 38.7625 26.4181 36.2875 26.5326C37.5125 24.8914 38.775 23.3647 40.025 21.978ZM25.525 14.179C27.625 12.9322 32.2875 14.7134 37.2 19.1408C37.5125 19.4207 37.825 19.7261 38.15 20.0314C36.2125 22.1561 34.425 24.4207 32.7875 26.7871C29.9625 27.0415 27.1625 27.4868 24.3875 28.1102C24.225 27.4614 24.0875 26.7998 23.95 26.1382C22.775 19.9805 23.55 15.3368 25.525 14.179ZM22.4625 47.7156C21.9375 47.563 21.425 47.3976 20.9125 47.2195C18.25 46.3671 15.225 45.0185 13.0375 43.25C11.775 42.3595 10.925 40.9854 10.6875 39.446C10.6875 37.1178 14.6375 34.1407 20.3375 32.1178C21.05 31.8634 21.775 31.6344 22.5 31.4181C23.35 34.1789 24.375 36.8888 25.5625 39.5096C24.3625 42.1686 23.325 44.9167 22.4625 47.7156ZM37.0375 60.1837C34.975 62.1048 32.5875 63.6315 29.9875 64.6748C28.6 65.3491 27 65.4127 25.575 64.8402C23.5875 63.6697 22.7625 59.1787 23.8875 53.1354C24.025 52.423 24.175 51.7105 24.35 51.0108C27.15 51.6215 29.975 52.0413 32.8375 52.2576C34.4875 54.6367 36.3 56.914 38.2375 59.0514C37.8375 59.4458 37.4375 59.8275 37.0375 60.1837ZM40.1 57.0922C38.825 55.6927 37.55 54.1405 36.3125 52.4739C37.5125 52.5248 38.75 52.5502 40 52.5502C41.2875 52.5502 42.55 52.5248 43.8 52.4612C42.65 54.0769 41.4125 55.6163 40.1 57.0922ZM56.4375 60.9089C56.325 62.4611 55.575 63.9114 54.375 64.8911C52.3875 66.0615 48.15 64.5348 43.575 60.54C43.05 60.0819 42.525 59.5858 41.9875 59.0769C43.9 56.9268 45.6625 54.6494 47.2625 52.2576C50.125 52.0159 52.975 51.5706 55.7875 50.9217C55.9125 51.4433 56.025 51.965 56.125 52.4739C56.7375 55.2219 56.8375 58.0845 56.4375 60.9089ZM58.7125 47.2322C58.3625 47.3467 58.0125 47.4612 57.65 47.563C56.775 44.7895 55.7 42.0796 54.4625 39.446C55.6625 36.8506 56.675 34.1789 57.525 31.4435C58.175 31.6344 58.8 31.8379 59.4 32.0415C65.225 34.0771 69.3125 37.105 69.3125 39.4206C69.3125 41.9142 64.95 45.133 58.7125 47.2322ZM40 45.3238C43.1625 45.3238 45.725 42.7157 45.725 39.4969C45.725 36.2781 43.1625 33.67 40 33.67C36.8375 33.67 34.275 36.2781 34.275 39.4969C34.275 42.7157 36.8375 45.3238 40 45.3238Z" fill="#321C69"/>
</svg>
