<svg width="79" height="79" viewBox="0 0 79 79" fill="none" xmlns="http://www.w3.org/2000/svg">
<rect x="0.5" y="0.5" width="78" height="78" rx="4.5" stroke="#EF98A7"/>
<path d="M48.2513 31.3367C50.5716 31.3367 52.7969 30.4234 54.4376 28.7978C56.0783 27.1722 57 24.9674 57 22.6684C57 20.3694 56.0783 18.1645 54.4376 16.5389C52.7969 14.9133 50.5716 14 48.2513 14L30.7538 14C28.4349 14 26.2109 14.9127 24.5712 16.5374C22.9315 18.1621 22.0103 20.3656 22.0103 22.6633C22.0103 24.9609 22.9315 27.1645 24.5712 28.7891C26.2109 30.4138 28.4349 31.3266 30.7538 31.3266C28.4335 31.3266 26.2083 32.2398 24.5676 33.8655C22.9269 35.4911 22.0051 37.6959 22.0051 39.9949C22.0051 42.2939 22.9269 44.4987 24.5676 46.1244C26.2083 47.75 28.4335 48.6633 30.7538 48.6633C29.0235 48.6623 27.3317 49.1697 25.8925 50.1213C24.4532 51.073 23.331 52.4262 22.6679 54.0097C22.0048 55.5933 21.8305 57.3361 22.1671 59.0178C22.5037 60.6995 23.336 62.2445 24.5588 63.4575C25.7816 64.6705 27.34 65.497 29.0369 65.8324C30.7338 66.1679 32.493 65.9973 34.092 65.3421C35.691 64.6869 37.058 63.5767 38.0202 62.1517C38.9823 60.7268 39.4964 59.0512 39.4974 57.3367V31.3367H48.2513ZM48.2513 31.3367C46.522 31.3367 44.8315 31.8448 43.3936 32.7967C41.9557 33.7487 40.835 35.1017 40.1733 36.6847C39.5115 38.2677 39.3383 40.0096 39.6757 41.6901C40.0131 43.3706 40.8458 44.9143 42.0686 46.1259C43.2914 47.3374 44.8494 48.1625 46.5455 48.4968C48.2416 48.8311 49.9996 48.6595 51.5973 48.0038C53.195 47.3481 54.5606 46.2377 55.5213 44.8131C56.4821 43.3884 56.9949 41.7134 56.9949 40C56.9946 37.7024 56.0733 35.4991 54.4336 33.8744C52.794 32.2498 50.5701 31.337 48.2513 31.3367Z" fill="#EF98A7"/>
</svg>
