<svg width="79" height="79" viewBox="0 0 79 79" fill="none" xmlns="http://www.w3.org/2000/svg">
<rect x="0.5" y="0.5" width="78" height="78" rx="4.5" stroke="#EF98A7"/>
<path d="M39.6184 60C39.4019 60 39.1853 59.9372 38.9894 59.8326L37.0094 58.6403C36.7103 58.4729 36.8547 58.4101 36.9578 58.3788C37.3497 58.2428 37.4322 58.2114 37.855 57.9604C37.8963 57.9395 37.9581 57.9499 37.9994 57.9708L39.5256 58.8913C39.5772 58.9227 39.6597 58.9227 39.7113 58.8913L45.6719 55.3978C45.7234 55.3664 45.7647 55.3037 45.7647 55.2304V48.2539C45.7647 48.1807 45.7337 48.1179 45.6719 48.0865L39.7113 44.6035C39.6597 44.5721 39.5875 44.5721 39.5256 44.6035L33.565 48.0865C33.5031 48.1179 33.4722 48.1911 33.4722 48.2539V55.2304C33.4722 55.2932 33.5134 55.3559 33.565 55.3873L35.1944 56.3392C36.0812 56.7889 36.6278 56.2555 36.6278 55.7325V48.8396C36.6278 48.7455 36.7 48.6618 36.8031 48.6618H37.5559C37.6487 48.6618 37.7312 48.735 37.7312 48.8396V55.7325C37.7312 56.9353 37.0919 57.6152 35.9678 57.6152C35.6275 57.6152 35.3491 57.6152 34.5963 57.2387L33.0287 56.3287C32.6472 56.0986 32.3997 55.6802 32.3997 55.2304V48.2539C32.3997 47.8041 32.6369 47.3753 33.0287 47.1556L38.9894 43.6621C39.3709 43.4425 39.8659 43.4425 40.2372 43.6621L46.1978 47.1556C46.5794 47.3858 46.8269 47.8041 46.8269 48.2539V55.2304C46.8269 55.6802 46.5897 56.109 46.1978 56.3287L40.2372 59.8222C40.0619 59.9372 39.8453 60 39.6184 60ZM44.4344 53.1176C44.4344 51.8102 43.5681 51.465 41.7325 51.214C39.8762 50.9629 39.6906 50.8374 39.6906 50.3981C39.6906 50.032 39.8453 49.5509 41.2169 49.5509C42.4441 49.5509 42.8978 49.8228 43.0834 50.6596C43.1041 50.7433 43.1659 50.7956 43.2484 50.7956H44.0219C44.0734 50.7956 44.1147 50.7747 44.1456 50.7433C44.1766 50.7014 44.1972 50.6596 44.1869 50.6073C44.0631 49.1639 43.1247 48.4945 41.2169 48.4945C39.5153 48.4945 38.5047 49.2266 38.5047 50.44C38.5047 51.7683 39.5153 52.1239 41.1447 52.2913C43.0938 52.49 43.2484 52.7724 43.2484 53.1594C43.2484 53.8393 42.7122 54.1217 41.4541 54.1217C39.8763 54.1217 39.5256 53.7243 39.4122 52.9293C39.4019 52.8457 39.3297 52.7829 39.2369 52.7829H38.4634C38.3706 52.7829 38.2881 52.8561 38.2881 52.9607C38.2881 53.9753 38.8347 55.1886 41.4437 55.1886C43.3516 55.1886 44.4344 54.4355 44.4344 53.1176ZM50.0547 47.8774C50.0547 48.5154 49.5391 49.0384 48.91 49.0384C48.2809 49.0384 47.7653 48.5154 47.7653 47.8774C47.7653 47.2184 48.3016 46.7163 48.91 46.7163C49.5287 46.7059 50.0547 47.2184 50.0547 47.8774ZM49.8691 47.8774C49.8691 47.3335 49.4359 46.9046 48.8997 46.9046C48.3737 46.9046 47.9406 47.3335 47.9406 47.8774C47.9406 48.4213 48.3737 48.8606 48.8997 48.8606C49.4359 48.8501 49.8691 48.4108 49.8691 47.8774ZM49.405 48.5258H49.1369C49.1266 48.4631 49.0853 48.1284 49.0853 48.1179C49.0647 48.0447 49.0441 48.0029 48.9512 48.0029H48.7244V48.5258H48.4769V47.2184H48.9203C49.075 47.2184 49.3741 47.2184 49.3741 47.5636C49.3741 47.8041 49.2194 47.8564 49.1266 47.8878C49.3019 47.8983 49.3122 48.0133 49.3431 48.1807C49.3534 48.2853 49.3741 48.4631 49.405 48.5258ZM49.1162 47.6054C49.1162 47.4276 48.9925 47.4276 48.9306 47.4276H48.7244V47.7937H48.9203C49.0853 47.7937 49.1162 47.6786 49.1162 47.6054ZM21.1591 32.7005C21.1591 32.4181 21.0147 32.1671 20.7775 32.0311L14.4559 28.3389C14.3528 28.2761 14.2291 28.2447 14.1053 28.2343H14.0434C13.9197 28.2343 13.8063 28.2761 13.6928 28.3389L7.38156 32.0311C7.14438 32.1671 7 32.4286 7 32.7005L7.01031 42.6371C7.01031 42.7731 7.0825 42.8986 7.19594 42.9718C7.30937 43.045 7.45375 43.045 7.5775 42.9718L11.3312 40.7858C11.5684 40.6393 11.7128 40.3883 11.7128 40.1164V35.4723C11.7128 35.2004 11.8572 34.9389 12.0944 34.8029L13.6928 33.872C13.8166 33.7988 13.9403 33.7674 14.0744 33.7674C14.2084 33.7674 14.3425 33.7988 14.4559 33.872L16.0544 34.8029C16.2916 34.9389 16.4359 35.2004 16.4359 35.4723V40.1164C16.4359 40.3883 16.5803 40.6498 16.8175 40.7858L20.5713 42.9718C20.6847 43.045 20.8394 43.045 20.9528 42.9718C21.0663 42.9091 21.1384 42.7731 21.1384 42.6371L21.1591 32.7005ZM55.7266 21.8539V40.3046C55.7266 40.5766 55.5822 40.8381 55.345 40.974L49.0234 44.6767C48.7862 44.8127 48.4975 44.8127 48.2603 44.6767L41.9387 40.974C41.7016 40.8381 41.5572 40.5766 41.5572 40.3046V32.8993C41.5572 32.6273 41.7016 32.3658 41.9387 32.2298L48.2603 28.5272C48.4975 28.3912 48.7862 28.3912 49.0234 28.5272L50.6012 29.4476C50.7766 29.5522 51.0034 29.4162 51.0034 29.2175V19.3855C51.0034 19.0926 51.3128 18.9043 51.5706 19.0508L55.3347 21.1845C55.5719 21.31 55.7266 21.5715 55.7266 21.8539ZM50.9828 35.3363C50.9828 35.2631 50.9416 35.2004 50.89 35.169L48.7244 33.8929C48.6625 33.8615 48.5903 33.8615 48.5284 33.8929L46.3628 35.169C46.3009 35.2004 46.27 35.2631 46.27 35.3363V37.878C46.27 37.9512 46.3113 38.014 46.3628 38.0454L48.5284 39.311C48.5903 39.3423 48.6625 39.3423 48.7141 39.311L50.8797 38.0454C50.9416 38.014 50.9725 37.9512 50.9725 37.878V35.3363H50.9828ZM72.6184 35.2631C72.8556 35.1271 73 34.8657 73 34.5937V32.8051C73 32.5332 72.8556 32.2717 72.6184 32.1357L66.3381 28.433C66.1009 28.297 65.8122 28.297 65.575 28.433L59.2534 32.1357C59.0163 32.2717 58.8719 32.5332 58.8719 32.8051V40.2105C58.8719 40.4929 59.0163 40.7439 59.2534 40.8799L65.5337 44.5094C65.7606 44.6453 66.0494 44.6453 66.2866 44.5094L70.0816 42.3652C70.3394 42.2187 70.3394 41.8422 70.0816 41.6958L63.7187 37.9931C63.595 37.9198 63.5228 37.7943 63.5228 37.6584V35.3363C63.5228 35.2004 63.595 35.0748 63.7187 35.0016L65.6988 33.8406C65.8122 33.7674 65.9669 33.7674 66.0803 33.8406L68.0603 35.0016C68.1737 35.0748 68.2562 35.2004 68.2562 35.3363V37.1563C68.2562 37.4492 68.5759 37.6374 68.8337 37.491L72.6184 35.2631ZM64.6469 35.6292C64.6056 35.6606 64.5747 35.7024 64.5747 35.7547V37.1772C64.5747 37.2295 64.6056 37.2818 64.6469 37.3027L65.8637 38.014C65.905 38.0454 65.9669 38.0454 66.0081 38.014L67.225 37.3027C67.2662 37.2714 67.2972 37.2295 67.2972 37.1772V35.7547C67.2972 35.7024 67.2662 35.6501 67.225 35.6292L66.0081 34.9179C65.9669 34.8866 65.905 34.8866 65.8637 34.9179L64.6469 35.6292ZM38.4325 40.1791V32.8156C38.4325 32.5436 38.2675 32.2821 38.0303 32.1462L31.7294 28.4644C31.5128 28.3389 31.2137 28.318 30.9662 28.4644L24.6653 32.1462C24.4281 32.2821 24.2631 32.5332 24.2631 32.8156V40.1791C24.2631 40.472 24.4591 40.723 24.6756 40.8485L30.9869 44.5303C31.2344 44.6767 31.5231 44.6663 31.75 44.5303L38.0406 40.8485C38.2262 40.7439 38.3603 40.5661 38.4119 40.3569C38.4222 40.3046 38.4325 40.2419 38.4325 40.1791ZM30.7703 27.1151L30.6878 27.1674H30.8012L30.7703 27.1151ZM38.6284 40.7335L38.5872 40.6603V40.7544L38.6284 40.7335Z" fill="#EF98A7"/>
</svg>
